<svg width="200" height="200" viewBox="0 0 119 54" fill="none" xmlns="http://www.w3.org/2000/svg">
  <g clip-path="url(#clip0_202_23)">
    <g clip-path="url(#clip1_202_23)">
      <path
        d="M26.7425 13.6948C15.8868 10.6273 6.20674 6.95361 0.953413 0.928818C-0.167052 7.5965 1.68814 13.1254 5.50875 17.8093L23.675 20.7115L12.801 24.3851C16.8787 27.2322 21.7279 29.7303 26.9996 32.0079L41.3269 31.6957L35.0082 35.1857C42.0432 37.8123 49.4457 40.1635 56.444 42.4962C54.9561 44.7188 52.605 46.3352 49.8865 46.8679C50.6396 48.6863 51.907 50.2476 53.5051 51.3865L56.9216 47.6577V52.9294C57.7114 53.1315 58.5563 53.2417 59.4013 53.2417C60.2646 53.2417 61.0911 53.1315 61.8994 52.9294V47.6577L65.3159 51.3865C66.9139 50.2476 68.1813 48.6863 68.9344 46.8679C66.2159 46.3352 63.8648 44.7188 62.3769 42.4962C69.3752 40.1635 76.7777 37.8123 83.7943 35.1857L77.494 31.6957L91.8029 32.0079C97.0746 29.7303 101.942 27.2322 106.02 24.3851L95.1459 20.7115L113.294 17.8093C117.133 13.1254 118.97 7.5965 117.868 0.928818C112.596 6.95361 102.916 10.6273 92.0784 13.6948C79.1839 17.4786 69.8161 24.0177 63.7178 30.9977C63.7546 30.7773 63.7913 30.5385 63.7913 30.3181C63.7913 27.8934 61.8259 25.928 59.4013 25.928C56.995 25.928 55.0296 27.8934 55.0296 30.3181C55.0296 30.5385 55.0664 30.7589 55.1031 30.9977C49.0048 23.9994 39.637 17.4786 26.7425 13.6948Z"
        fill="#0DAED8" />
    </g>
  </g>
  <defs>
    <clipPath id="clip0_202_23">
      <rect width="117.554" height="52.3129" fill="white" transform="translate(0.629837 0.928833)" />
    </clipPath>
    <clipPath id="clip1_202_23">
      <rect width="117.554" height="52.3129" fill="white" transform="translate(0.629837 0.928833)" />
    </clipPath>
  </defs>
</svg>