<svg width="251" height="250" viewBox="0 0 251 250" fill="none" xmlns="http://www.w3.org/2000/svg">
<g clip-path="url(#clip0_202_19)">
<g clip-path="url(#clip1_202_19)">
<g clip-path="url(#clip2_202_19)">
<g clip-path="url(#clip3_202_19)">
<path d="M72.8892 110.719C55.4748 105.5 39.9463 99.25 31.519 89C29.7216 100.344 32.6977 109.75 38.8266 117.719L67.9684 122.656L50.5245 128.906C57.066 133.75 64.845 138 73.3017 141.875L96.2851 141.344L86.1488 147.281C97.4343 151.75 109.309 155.75 120.536 159.719C118.149 163.5 114.377 166.25 110.016 167.156C111.224 170.25 113.257 172.906 115.821 174.844L121.302 168.5V177.469C122.569 177.812 123.924 178 125.28 178C126.664 178 127.99 177.812 129.287 177.469V168.5L134.768 174.844C137.331 172.906 139.364 170.25 140.572 167.156C136.211 166.25 132.44 163.5 130.053 159.719C141.28 155.75 153.154 151.75 164.41 147.281L154.303 141.344L177.257 141.875C185.714 138 193.523 133.75 200.064 128.906L182.62 122.656L211.733 117.719C217.891 109.75 220.838 100.344 219.07 89C210.613 99.25 195.084 105.5 177.699 110.719C157.014 117.156 141.987 128.281 132.204 140.156C132.263 139.781 132.322 139.375 132.322 139C132.322 134.875 129.169 131.531 125.28 131.531C121.42 131.531 118.267 134.875 118.267 139C118.267 139.375 118.326 139.75 118.385 140.156C108.602 128.25 93.5742 117.156 72.8892 110.719Z" fill="#0DAED8"/>
</g>
</g>
<path d="M9.11815 157.959L29.8722 152.188C30.316 152.065 30.6384 152.021 30.8383 152.057C31.0383 152.092 31.2117 152.312 31.3586 152.715C31.5045 153.111 31.7116 153.792 31.9799 154.758L10.5015 160.731C10.3118 160.783 10.169 160.776 10.0741 160.712C9.9741 160.655 9.85678 160.423 9.72313 160.017C9.58846 159.611 9.38748 158.925 9.11815 157.959ZM16.8625 178.244L15.6566 175.925L29.157 174.684L30.8546 175.612C30.8546 175.612 31.1464 175.541 31.729 175.398C32.3064 175.258 33.0358 175.104 33.9183 174.936C34.8049 174.774 35.7027 174.627 36.6137 174.497L39.913 174.031C40.0916 173.992 40.2273 174.002 40.3191 174.062C40.4109 174.121 40.567 174.341 40.7884 174.723C41.0067 175.098 41.3526 175.741 41.8249 176.649L28.6316 178.281L27.7706 177.33C27.7706 177.33 27.4584 177.393 26.8361 177.518C26.2137 177.644 25.4312 177.778 24.4906 177.923C23.5439 178.072 22.59 178.185 21.6299 178.265L17.5012 178.612C17.1941 178.595 16.9819 178.473 16.8625 178.244ZM21.582 187.322L20.0762 184.426L23.044 181.071C23.7061 180.36 24.3712 179.664 25.0395 178.979C25.7046 178.305 26.2668 177.746 26.7238 177.302C27.1768 176.852 27.4043 176.626 27.4043 176.626L27.8695 175.25L35.9077 166.394C36.0607 166.261 36.1842 166.227 36.2791 166.292C36.3709 166.351 36.5464 166.608 36.8055 167.062C37.0646 167.516 37.4656 168.266 38.0104 169.313L35.3476 172.061C34.6845 172.727 34.0285 173.37 33.3807 173.989C32.7379 174.606 32.1962 175.105 31.7534 175.489C31.3137 175.878 31.0934 176.072 31.0934 176.072L31.077 177.297L22.139 187.4C22.0554 187.519 21.9636 187.578 21.8636 187.577C21.7667 187.581 21.6728 187.497 21.582 187.322ZM44.6672 215.577C44.5315 215.464 44.3326 215.285 44.0694 215.039C43.8061 214.793 43.5542 214.544 43.3144 214.292L62.0138 200.757C62.3045 200.513 62.7177 200.615 63.2543 201.062C63.4522 201.227 63.64 201.4 63.8154 201.582C63.995 201.757 64.1399 201.917 64.249 202.061L54.3643 222.892C54.2745 223.063 54.1347 223.137 53.9439 223.111C53.7582 223.079 53.4389 222.875 52.986 222.498C52.8339 222.372 52.6493 222.213 52.4289 222.021C52.2086 221.82 51.9535 221.587 51.6638 221.32L57.4259 209.959C57.7738 209.339 58.1257 208.693 58.4828 208.02C58.8409 207.357 59.2112 206.716 59.5928 206.099C59.9795 205.486 60.3284 204.938 60.6406 204.458C60.2457 204.869 59.7713 205.312 59.2174 205.787C58.6634 206.261 58.1013 206.741 57.5299 207.226C56.9535 207.717 56.3822 208.181 55.816 208.619L46.1169 216.029C45.9639 216.148 45.8006 216.202 45.6262 216.189C45.4558 216.171 45.1365 215.966 44.6672 215.577ZM55.4222 217.169L49.5193 212.258L51.2496 210.178L57.1525 215.089L55.4222 217.169ZM95.2612 242.991L84.7878 239.68C84.7766 239.514 84.7929 239.34 84.8347 239.162C84.8837 238.985 84.9184 238.865 84.9388 238.8C85.0898 238.321 85.2632 237.953 85.4581 237.695C85.654 237.437 85.9916 237.089 86.4711 236.65C87.3046 235.903 88.1504 235.229 89.0094 234.626C89.8776 234.018 90.7223 233.45 91.5436 232.92C92.3587 232.389 93.1239 231.869 93.838 231.362C94.5471 230.854 95.1439 230.335 95.6316 229.807C96.1202 229.272 96.4661 228.684 96.6681 228.044C96.8017 227.623 96.8395 227.245 96.7823 226.907C96.7323 226.571 96.564 226.273 96.2763 226.01C95.9958 225.751 95.5938 225.539 95.0704 225.374C94.5726 225.216 94.0349 225.092 93.4595 225.003C92.8831 224.914 92.32 224.874 91.7691 224.885C91.2202 224.889 90.7478 224.932 90.352 225.013C90.3091 224.587 90.3336 224.172 90.4255 223.767C90.5183 223.362 90.5999 223.047 90.6713 222.821C90.7631 222.529 91.1049 222.339 91.6956 222.248C92.2771 222.162 93.0178 222.168 93.9186 222.268C94.8113 222.366 95.756 222.572 96.7517 222.887C97.9352 223.261 98.8166 223.724 99.3951 224.277C99.9766 224.823 100.302 225.455 100.373 226.176C100.445 226.895 100.336 227.713 100.045 228.631C99.7838 229.459 99.389 230.201 98.8615 230.859C98.3331 231.517 97.7056 232.13 96.9792 232.697C96.2508 233.27 95.4622 233.828 94.6154 234.371C93.7687 234.914 92.8923 235.493 91.9853 236.11C91.0865 236.729 90.1877 237.412 89.29 238.159L92.8393 239.281C93.3371 239.438 93.8227 239.578 94.2971 239.7C94.7746 239.829 95.201 239.932 95.5754 240.008C95.9519 240.077 96.2529 240.136 96.4783 240.186C96.7048 240.236 96.8181 240.262 96.8181 240.262C96.4702 241.36 96.1968 242.113 95.9968 242.519C95.7979 242.925 95.553 243.083 95.2612 242.991ZM115.414 249.741C114.59 249.681 113.889 249.546 113.314 249.333C112.737 249.115 112.466 248.789 112.498 248.356C112.518 248.072 112.57 247.736 112.653 247.348C112.742 246.96 112.826 246.64 112.906 246.387C113.272 246.495 113.648 246.598 114.036 246.694C114.424 246.79 114.824 246.853 115.236 246.884C116.473 246.974 117.491 246.762 118.29 246.249C119.095 245.737 119.724 245.002 120.175 244.042C120.626 243.082 120.968 241.961 121.205 240.68C121.442 239.392 121.611 238.045 121.714 236.638C121.805 235.394 121.845 234.33 121.835 233.446C121.824 232.561 121.743 231.817 121.589 231.214C121.436 230.612 121.19 230.159 120.852 229.856C120.514 229.545 120.061 229.37 119.493 229.328C118.513 229.257 117.687 229.621 117.017 230.422C116.347 231.23 115.947 232.513 115.819 234.271C115.72 235.617 115.875 236.672 116.282 237.436C116.681 238.199 117.307 238.611 118.16 238.673C118.917 238.728 119.662 238.518 120.398 238.042C121.133 237.571 121.825 236.783 122.477 235.674L122.287 238.281C121.657 239.371 120.953 240.176 120.174 240.696C119.394 241.225 118.352 241.441 117.047 241.346C116.154 241.281 115.379 240.966 114.72 240.401C114.061 239.836 113.56 239.052 113.219 238.048C112.877 237.038 112.759 235.826 112.862 234.412C113.068 231.586 113.746 229.555 114.896 228.32C116.048 227.079 117.624 226.531 119.626 226.677C120.796 226.761 121.734 227 122.438 227.392C123.144 227.783 123.662 228.384 123.99 229.198C124.325 230.011 124.522 231.085 124.581 232.421C124.633 233.758 124.612 235.405 124.516 237.363C124.148 241.748 123.252 244.96 121.825 246.997C120.398 249.034 118.262 249.95 115.414 249.741ZM164.189 240.784C163.732 240.937 163.317 240.884 162.944 240.624C162.572 240.37 162.236 239.996 161.934 239.504C161.436 238.727 160.844 237.753 160.156 236.583C159.463 235.414 158.721 234.158 157.932 232.813C157.15 231.466 156.367 230.131 155.586 228.807C154.803 227.482 154.097 226.278 153.468 225.194C152.844 224.103 152.337 223.225 151.949 222.561C151.567 221.896 151.377 221.563 151.377 221.563C151.215 221.295 151.142 221.098 151.156 220.972C151.168 220.839 151.361 220.709 151.735 220.584L154.086 219.792L160.151 230.414C160.642 231.279 161.121 232.18 161.587 233.117C162.053 234.056 162.496 234.936 162.916 235.761C163.33 236.587 163.7 237.31 164.023 237.932C163.867 237.254 163.697 236.463 163.514 235.56C163.337 234.653 163.152 233.685 162.956 232.657C162.76 231.629 162.587 230.625 162.436 229.644L160.864 218.412C160.819 218.127 160.812 217.904 160.844 217.744C160.882 217.58 161.036 217.453 161.305 217.362L163.754 216.539L166.553 239.806C166.177 239.982 165.823 240.144 165.493 240.291C165.164 240.438 164.73 240.602 164.189 240.784ZM184.805 231.622C184.655 231.713 184.421 231.844 184.104 232.014C183.786 232.185 183.469 232.343 183.153 232.488L176.365 210.425C176.229 210.072 176.459 209.713 177.055 209.348C177.275 209.214 177.499 209.093 177.726 208.985C177.952 208.872 178.15 208.786 178.321 208.729L194.855 224.798C194.988 224.939 195.013 225.095 194.927 225.268C194.837 225.433 194.541 225.67 194.037 225.978C193.87 226.08 193.66 226.204 193.408 226.351C193.146 226.495 192.843 226.66 192.496 226.849L183.599 217.733C183.124 217.204 182.626 216.662 182.104 216.107C181.592 215.554 181.104 214.998 180.643 214.438C180.187 213.874 179.781 213.367 179.427 212.917C179.689 213.424 179.956 214.016 180.226 214.693C180.497 215.37 180.77 216.057 181.045 216.755C181.325 217.458 181.58 218.149 181.811 218.826L185.7 230.395C185.765 230.578 185.763 230.75 185.694 230.911C185.622 231.067 185.326 231.303 184.805 231.622ZM189.778 221.954L183.226 225.958L181.815 223.651L188.367 219.645L189.778 221.954ZM211.773 211.607C210.961 212.397 210.159 212.949 209.368 213.263C208.583 213.573 207.731 213.612 206.814 213.378C205.901 213.14 204.859 212.569 203.688 211.665C202.526 210.761 201.163 209.506 199.598 207.897C197.793 206.039 196.44 204.414 195.539 203.02C194.642 201.632 194.102 200.408 193.915 199.35C193.728 198.303 193.838 197.355 194.243 196.507C194.648 195.659 195.242 194.855 196.025 194.094C196.822 193.319 197.564 192.838 198.253 192.651C198.942 192.474 199.451 192.556 199.781 192.896C200.013 193.134 200.213 193.403 200.381 193.703C200.56 194.002 200.709 194.278 200.83 194.529C200.475 194.572 200.089 194.7 199.674 194.916C199.263 195.135 198.878 195.42 198.518 195.769C197.925 196.346 197.533 196.949 197.342 197.579C197.146 198.205 197.165 198.89 197.399 199.637C197.638 200.379 198.115 201.23 198.83 202.189C199.551 203.144 200.52 204.248 201.739 205.502C203.015 206.815 204.084 207.832 204.947 208.555C205.819 209.276 206.546 209.757 207.128 209.995C207.709 210.233 208.209 210.286 208.628 210.153C209.048 210.02 209.429 209.785 209.775 209.45C210.023 209.209 210.199 208.986 210.302 208.781C210.401 208.572 210.466 208.385 210.496 208.223C210.518 208.06 210.522 207.943 210.509 207.871L205.036 202.241L203.542 203.694L202.201 202.316C201.942 202.049 201.968 201.763 202.279 201.461L205.327 198.498L214.073 207.555C214.021 207.87 213.913 208.255 213.748 208.708C213.579 209.166 213.34 209.635 213.031 210.115C212.722 210.594 212.302 211.092 211.773 211.607ZM227.073 192.265L208.158 180.104C208.158 180.104 208.159 180.072 208.159 180.008C208.16 179.944 208.238 179.792 208.392 179.553L209.381 178.013C209.535 177.773 209.638 177.646 209.688 177.63C209.743 177.608 209.77 177.598 209.77 177.598L228.214 189.455C228.362 189.551 228.444 189.656 228.459 189.771C228.48 189.889 228.387 190.127 228.181 190.486C227.974 190.845 227.604 191.438 227.073 192.265ZM213.882 175.659L207.87 185.009L206.006 183.81C205.675 183.597 205.61 183.334 205.812 183.021L211.818 173.679L213.692 174.883C213.873 175 213.981 175.114 214.016 175.225C214.044 175.332 213.999 175.477 213.882 175.659ZM237.66 172.582C237.598 172.748 237.496 172.994 237.351 173.324C237.207 173.654 237.055 173.974 236.897 174.284L217.924 161.137C217.598 160.943 217.556 160.519 217.8 159.864C217.89 159.623 217.991 159.389 218.104 159.164C218.21 158.936 218.313 158.746 218.412 158.595L241.342 161.007C241.535 161.035 241.65 161.143 241.689 161.33C241.721 161.516 241.634 161.885 241.429 162.438C241.361 162.623 241.272 162.851 241.165 163.121C241.048 163.396 240.912 163.715 240.756 164.076L228.127 162.411C227.428 162.288 226.7 162.17 225.947 162.057C225.203 161.938 224.475 161.803 223.766 161.648C223.06 161.487 222.428 161.339 221.87 161.203C222.39 161.44 222.965 161.741 223.597 162.105C224.227 162.47 224.867 162.841 225.515 163.22C226.17 163.6 226.796 163.985 227.397 164.375L237.605 171.064C237.77 171.168 237.874 171.305 237.92 171.474C237.959 171.641 237.873 172.01 237.66 172.582ZM235.594 161.908L232.92 169.106L230.383 168.164L233.057 160.966L235.594 161.908Z" fill="#0DAED8"/>
<path d="M25.6353 96.7637L5.16485 91.077C4.7333 90.9577 4.44051 90.8332 4.28645 90.7067C4.13342 90.572 4.0967 90.2986 4.17627 89.8844C4.26299 89.4723 4.43744 88.7918 4.70066 87.845L25.8771 93.7275C26.0597 93.7775 26.1801 93.853 26.2362 93.954C26.2851 94.0581 26.2627 94.3162 26.1699 94.7263C26.077 95.1375 25.8985 95.8159 25.6353 96.7637ZM32.1625 79.565L30.9709 81.8564L22.3257 71.6534L22.1054 69.7619C22.1054 69.7619 21.885 69.5681 21.4453 69.1783C21.0025 68.7958 20.4649 68.2938 19.8313 67.6746C19.1988 67.0553 18.5703 66.4115 17.947 65.7433L15.7107 63.3428C15.5791 63.2285 15.5108 63.1163 15.5067 63.0071C15.5026 62.898 15.5913 62.646 15.774 62.2522C15.9525 61.8635 16.2749 61.2218 16.7411 60.325L25.521 70.0486L25.2476 71.281C25.2476 71.281 25.471 71.4973 25.9189 71.9288C26.377 72.3573 26.933 72.9102 27.59 73.5877C28.2368 74.2681 28.8673 74.9741 29.4804 75.7056L32.1013 78.8448C32.2605 79.0958 32.2809 79.3365 32.1625 79.565ZM36.8167 70.6138L35.3293 73.4734L30.9383 72.9674C29.9885 72.8409 29.0519 72.7011 28.1297 72.5501C27.2043 72.3899 26.431 72.2522 25.8118 72.1359C25.1976 72.0237 24.8905 71.9666 24.8905 71.9666L23.5061 72.3818L11.8115 70.9096C11.6238 70.8586 11.5279 70.778 11.5238 70.6689C11.5197 70.5597 11.6268 70.271 11.8472 69.8047C12.0665 69.3385 12.444 68.5907 12.9786 67.5623L16.6993 68.1439C17.6093 68.304 18.4969 68.4713 19.362 68.6458C20.2353 68.8172 20.9505 68.9702 21.5055 69.1069C22.0645 69.2365 22.3441 69.3018 22.3441 69.3018L23.351 68.6223L36.5698 70.1179C36.7116 70.123 36.8096 70.1628 36.8636 70.2363C36.9198 70.3189 36.9045 70.4444 36.8167 70.6138ZM56.0976 47.2745C55.967 47.3827 55.7599 47.5418 55.4763 47.752C55.1865 47.9662 54.8988 48.1652 54.6122 48.3508L44.8498 27.7937C44.6682 27.4683 44.8396 27.0867 45.3671 26.649C45.565 26.4848 45.767 26.3297 45.9731 26.1848C46.173 26.0451 46.3567 25.9369 46.5229 25.8604L64.9244 39.1833C65.0815 39.3088 65.1305 39.4577 65.0713 39.6301C65.007 39.8066 64.7499 40.0821 64.3021 40.4545C64.1562 40.5759 63.9685 40.7269 63.7399 40.9085C63.5073 41.0839 63.2359 41.288 62.9258 41.5196L52.939 33.8976C52.3983 33.4477 51.8382 32.9917 51.2598 32.5295C50.6772 32.0612 50.1212 31.5848 49.5938 31.0971C49.0694 30.6156 48.6021 30.181 48.19 29.7913C48.5185 30.2493 48.8613 30.789 49.2183 31.4093C49.5846 32.0306 49.9519 32.6642 50.3212 33.31C50.6864 33.9496 51.0323 34.5832 51.3597 35.2106L56.7985 45.9381C56.8882 46.1197 56.9107 46.29 56.8668 46.4502C56.8178 46.6145 56.5618 46.8889 56.0976 47.2745ZM59.5734 37.1378L53.7552 41.9746L52.0453 39.9178L57.8635 35.081L59.5734 37.1378ZM101.081 22.8406L90.7488 26.092C90.6468 25.9675 90.5611 25.8206 90.4928 25.6503C90.4254 25.4799 90.3805 25.3615 90.3601 25.2973C90.2143 24.8321 90.1469 24.4372 90.1581 24.1138C90.1724 23.7965 90.25 23.3201 90.3918 22.6855C90.6397 21.6204 90.9427 20.5972 91.3028 19.6168C91.6558 18.6384 92.0119 17.7049 92.372 16.8163C92.7372 15.9206 93.0627 15.0677 93.3483 14.2597C93.6319 13.4455 93.8197 12.6865 93.9115 11.9826C94.0084 11.2766 93.9574 10.6063 93.7584 9.97277C93.6299 9.5657 93.4463 9.23924 93.2055 8.99541C92.9739 8.75566 92.6689 8.60977 92.2894 8.55876C91.917 8.50469 91.4763 8.55876 90.9651 8.71893C90.4673 8.87605 89.9592 9.08213 89.443 9.33718C88.9257 9.59223 88.4473 9.87789 88.0065 10.1942C87.5658 10.5104 87.2138 10.8134 86.9486 11.1032C86.665 10.7869 86.4487 10.439 86.3008 10.0595C86.1447 9.67487 86.0314 9.37289 85.962 9.15252C85.8702 8.86176 86.0355 8.51489 86.4558 8.11293C86.8833 7.70791 87.4852 7.29473 88.2616 6.87236C89.0431 6.44184 89.9255 6.0715 90.909 5.76238C92.0792 5.39408 93.0525 5.2686 93.8288 5.38694C94.6124 5.50325 95.2347 5.83277 95.6979 6.37756C96.158 6.91419 96.5303 7.63548 96.816 8.54142C97.0721 9.35656 97.1741 10.1768 97.1221 11.0042C97.0649 11.8397 96.9037 12.6937 96.6375 13.5659C96.3702 14.4321 96.0509 15.3248 95.6795 16.245C95.299 17.1611 94.9205 18.1262 94.543 19.1403C94.1635 20.1483 93.8207 21.2052 93.5146 22.3111L97.017 21.2083C97.5087 21.0542 97.9841 20.8941 98.4443 20.7278C98.8972 20.5635 99.2951 20.4064 99.6389 20.2554C99.9868 20.0963 100.264 19.9738 100.471 19.8871C100.679 19.8004 100.783 19.7565 100.783 19.7565C101.124 20.8441 101.332 21.6062 101.407 22.0449C101.474 22.4856 101.366 22.7508 101.081 22.8406ZM118.093 23.5323C117.281 23.5905 116.578 23.5527 115.985 23.4191C115.391 23.2915 115.079 23.0151 115.048 22.5896C115.028 22.305 115.031 21.9683 115.056 21.5786C115.083 21.1899 115.121 20.8645 115.169 20.6023C115.542 20.6635 115.922 20.7114 116.312 20.7441C116.703 20.7839 117.101 20.79 117.506 20.7604C118.73 20.6727 119.697 20.3207 120.407 19.7055C121.112 19.0975 121.618 18.2925 121.926 17.2917C122.228 16.2909 122.405 15.1462 122.455 13.8587C122.506 12.5763 122.48 11.2399 122.38 9.84626C122.293 8.62201 122.18 7.58038 122.044 6.71933C121.9 5.85318 121.712 5.13903 121.481 4.57792C121.244 4.01069 120.939 3.60056 120.567 3.34857C120.195 3.09658 119.729 2.9915 119.168 3.03129C118.208 3.10066 117.456 3.57302 116.914 4.44733C116.372 5.32981 116.164 6.63976 116.29 8.37716C116.385 9.70343 116.685 10.7083 117.19 11.3919C117.687 12.0774 118.356 12.3896 119.194 12.3284C119.945 12.2754 120.643 11.9662 121.289 11.4031C121.942 10.8399 122.505 9.96971 122.977 8.79341L123.163 11.3704C122.709 12.5243 122.137 13.4119 121.448 14.0332C120.758 14.6535 119.771 15.0095 118.486 15.1024C117.607 15.1656 116.808 14.9677 116.088 14.5096C115.362 14.0597 114.761 13.3649 114.286 12.4274C113.811 11.4888 113.523 10.3237 113.423 8.93012C113.223 6.14394 113.596 4.06782 114.545 2.70074C115.487 1.32857 116.945 0.570554 118.92 0.428746C120.076 0.345089 121.024 0.444049 121.765 0.723585C122.512 1.00312 123.107 1.51424 123.547 2.25797C123.988 3.00068 124.331 4.02293 124.574 5.32471C124.817 6.61935 125.027 8.22821 125.206 10.1523C125.478 14.4841 125.062 17.7457 123.963 19.9392C122.856 22.1326 120.9 23.3303 118.093 23.5323ZM159.908 25.4462C159.465 25.2962 159.171 25.0106 159.027 24.5903C158.883 24.1689 158.84 23.6721 158.899 23.0977C158.982 22.1948 159.098 21.0787 159.248 19.7474C159.405 18.419 159.576 16.9918 159.763 15.4656C159.95 13.9403 160.134 12.4243 160.315 10.9175C160.492 9.41777 160.661 8.0507 160.822 6.81625C160.98 5.58792 161.103 4.59934 161.192 3.84949C161.288 3.10168 161.335 2.72727 161.335 2.72727C161.376 2.41917 161.44 2.21819 161.528 2.12637C161.616 2.03455 161.843 2.05087 162.209 2.17534L164.522 2.95681L162.937 14.9075C162.808 15.8808 162.647 16.8745 162.454 17.8906C162.256 18.8975 162.073 19.8484 161.907 20.7441C161.738 21.646 161.595 22.4387 161.478 23.1222C161.761 22.4948 162.104 21.7694 162.504 20.9461C162.909 20.1309 163.338 19.2628 163.792 18.3435C164.256 17.4192 164.722 16.5286 165.191 15.6706L170.671 5.91847C170.798 5.6675 170.927 5.48896 171.055 5.38286C171.183 5.28288 171.378 5.27676 171.641 5.36654L174.05 6.18066L162.349 26.1002C161.942 26.0135 161.567 25.9257 161.225 25.838C160.88 25.7574 160.441 25.6268 159.908 25.4462ZM177.357 32.8039C177.213 32.7152 176.996 32.5693 176.706 32.3683C176.41 32.1632 176.129 31.9541 175.86 31.7419L192.192 15.892C192.441 15.6155 192.857 15.6563 193.441 16.0144C193.661 16.1491 193.872 16.2909 194.075 16.4388C194.272 16.5837 194.434 16.7224 194.56 16.8551L187.856 38.562C187.788 38.7507 187.663 38.8456 187.481 38.8446C187.292 38.8405 186.949 38.6864 186.452 38.3814C186.29 38.2824 186.087 38.1529 185.842 37.9947C185.6 37.8315 185.321 37.6397 185.002 37.4204L189.011 25.5146C189.262 24.8576 189.514 24.1801 189.766 23.4844C190.022 22.7814 190.295 22.103 190.587 21.446C190.875 20.7951 191.137 20.2126 191.373 19.6974C191.044 20.1554 190.643 20.6533 190.171 21.1909C189.701 21.7378 189.219 22.2887 188.726 22.8457C188.237 23.3966 187.748 23.9282 187.259 24.4403L178.849 33.0376C178.705 33.1804 178.551 33.2569 178.385 33.2671C178.215 33.2732 177.872 33.1192 177.357 32.8039ZM188.074 32.8376L181.624 28.8823L183.022 26.6021L189.473 30.5574L188.074 32.8376ZM200.978 50.9503C200.182 50.174 199.618 49.3976 199.286 48.6202C198.956 47.852 198.898 47.0144 199.111 46.1054C199.32 45.2015 199.854 44.1639 200.712 42.9927C201.574 41.8164 202.777 40.4371 204.319 38.8538C206.103 37.0235 207.668 35.6473 209.014 34.724C210.364 33.8048 211.555 33.2385 212.588 33.0243C213.616 32.8141 214.555 32.8958 215.404 33.2692C216.252 33.6507 217.06 34.2159 217.828 34.9637C218.614 35.7309 219.105 36.4512 219.301 37.1245C219.501 37.7938 219.435 38.2977 219.104 38.6375C218.882 38.866 218.622 39.0731 218.328 39.2588C218.033 39.4353 217.763 39.5842 217.521 39.7077C217.474 39.3577 217.337 38.9833 217.11 38.5834C216.885 38.1835 216.595 37.8111 216.241 37.4653C215.659 36.898 215.054 36.5267 214.428 36.3522C213.803 36.1778 213.128 36.2155 212.402 36.4644C211.677 36.7225 210.848 37.2173 209.918 37.9488C208.997 38.6793 207.936 39.6618 206.733 40.8952C205.474 42.1857 204.503 43.2702 203.818 44.1466C203.13 45.0189 202.673 45.7432 202.451 46.3217C202.233 46.9042 202.194 47.401 202.334 47.8122C202.478 48.2172 202.719 48.5865 203.059 48.9171C203.302 49.1537 203.527 49.3211 203.735 49.42C203.942 49.518 204.125 49.5771 204.283 49.5996C204.442 49.622 204.56 49.622 204.636 49.6026L210.031 44.068L208.553 42.6265L209.881 41.2645C210.136 41.0023 210.42 41.0227 210.73 41.3257L213.73 44.2506L205.048 53.1142C204.73 53.0703 204.344 52.9724 203.886 52.8193C203.438 52.6673 202.972 52.4449 202.489 52.1542C202.006 51.8624 201.502 51.4615 200.978 50.9503ZM214.394 67.0104L233.059 55.0444C233.059 55.0444 233.088 55.0587 233.146 55.0862C233.203 55.1128 233.307 55.2444 233.457 55.478L234.428 56.993C234.579 57.2277 234.653 57.3735 234.65 57.4317C234.643 57.4847 234.64 57.5103 234.64 57.5103L216.437 69.1794C216.294 69.2712 216.165 69.3018 216.048 69.2712C215.942 69.2436 215.77 69.0631 215.533 68.7315C215.293 68.3948 214.913 67.8204 214.394 67.0104ZM234.689 61.9971L228.777 52.7755L230.618 51.5961C230.943 51.387 231.204 51.4339 231.397 51.7369L237.315 60.9667L235.473 62.1471C235.29 62.2634 235.145 62.3134 235.036 62.294C234.922 62.2787 234.806 62.1797 234.689 61.9971ZM223.299 83.6734C223.24 83.5143 223.158 83.2664 223.055 82.9287C222.95 82.5838 222.857 82.2461 222.778 81.9146L245.412 79.5467C245.779 79.4824 246.081 79.7722 246.319 80.4149C246.409 80.6556 246.487 80.8985 246.555 81.1402C246.621 81.3759 246.662 81.5851 246.678 81.7666L227.993 94.6896C227.823 94.7957 227.666 94.7926 227.523 94.6784C227.378 94.559 227.203 94.2264 227.001 93.6786C226.935 93.5011 226.854 93.2746 226.76 92.9981C226.672 92.7206 226.57 92.3962 226.454 92.0269L236.965 85.1446C237.569 84.7834 238.185 84.408 238.813 84.0162C239.449 83.6224 240.083 83.2572 240.718 82.9205C241.346 82.5869 241.913 82.291 242.417 82.0319C241.875 82.189 241.253 82.3329 240.549 82.4624C239.841 82.6022 239.121 82.7379 238.39 82.8715C237.664 83.0021 236.952 83.1174 236.252 83.2184L224.325 84.7793C224.125 84.8028 223.956 84.7671 223.82 84.6732C223.682 84.5722 223.508 84.2396 223.299 83.6734ZM231.702 90.3241L229.076 83.2276L231.585 82.2992L234.211 89.3957L231.702 90.3241Z" fill="#0DAED8"/>
<path d="M3.64782 125.184C3.64782 120.355 7.56133 116.441 12.3889 116.441C17.2176 116.441 21.1311 120.355 21.1311 125.184C21.1311 130.011 17.2176 133.925 12.3889 133.925C7.56133 133.925 3.64782 130.011 3.64782 125.184ZM229.683 125.184C229.683 120.355 233.597 116.441 238.425 116.441C243.252 116.441 247.166 120.355 247.166 125.184C247.166 130.011 243.252 133.925 238.425 133.925C233.597 133.925 229.683 130.011 229.683 125.184Z" fill="#0DAED8"/>
</g>
</g>
<defs>
<clipPath id="clip0_202_19">
<rect width="249.37" height="249.37" fill="white" transform="translate(0.721832 0.400192)"/>
</clipPath>
<clipPath id="clip1_202_19">
<rect width="249.37" height="249.37" fill="white" transform="translate(0.721832 0.400192)"/>
</clipPath>
<clipPath id="clip2_202_19">
<rect width="188.577" height="89" fill="white" transform="translate(31 89)"/>
</clipPath>
<clipPath id="clip3_202_19">
<rect width="188.577" height="89" fill="white" transform="translate(31 89)"/>
</clipPath>
</defs>
</svg>
